<svg width="381" height="283" viewBox="0 0 381 283" fill="none" xmlns="http://www.w3.org/2000/svg">
<mask id="path-1-inside-1_5753_54966" fill="white">
<path d="M324.008 109.087V195.693C324.008 199.146 321.22 201.934 317.768 201.934H169.645C166.193 201.934 163.402 199.146 163.402 195.693V109.087C163.402 105.638 166.193 102.847 169.645 102.847H317.768C321.22 102.847 324.008 105.638 324.008 109.087Z"/>
</mask>
<path d="M324.008 109.087V195.693C324.008 199.146 321.22 201.934 317.768 201.934H169.645C166.193 201.934 163.402 199.146 163.402 195.693V109.087C163.402 105.638 166.193 102.847 169.645 102.847H317.768C321.22 102.847 324.008 105.638 324.008 109.087Z" fill="#F9F9F9"/>
<path d="M324.508 109.087V195.693H323.508V109.087H324.508ZM324.508 195.693C324.508 199.422 321.496 202.434 317.768 202.434V201.434C320.944 201.434 323.508 198.869 323.508 195.693H324.508ZM317.768 202.434H169.645V201.434H317.768V202.434ZM169.645 202.434C165.917 202.434 162.902 199.422 162.902 195.693H163.902C163.902 198.869 166.469 201.434 169.645 201.434V202.434ZM162.902 195.693V109.087H163.902V195.693H162.902ZM162.902 109.087C162.902 105.361 165.917 102.347 169.645 102.347V103.347C166.469 103.347 163.902 105.914 163.902 109.087H162.902ZM169.645 102.347H317.768V103.347H169.645V102.347ZM317.768 102.347C321.496 102.347 324.508 105.361 324.508 109.087H323.508C323.508 105.914 320.944 103.347 317.768 103.347V102.347Z" fill="#CFDAFF" mask="url(#path-1-inside-1_5753_54966)"/>
<path d="M221.687 136.583H257.892V133.247H221.687V136.583ZM259.149 137.84H220.43V131.99H259.149V137.84Z" fill="#CFDAFF"/>
<path d="M178.012 145.44H295.61V144.302H178.012V145.44Z" fill="#CFDAFF"/>
<path d="M178.012 152.556H266.487V151.418H178.012V152.556Z" fill="#CFDAFF"/>
<path d="M178.012 159.671H234.224V158.535H178.012V159.671Z" fill="#CFDAFF"/>
<path d="M295.601 159.671H238.266V158.535H295.601V159.671Z" fill="#CFDAFF"/>
<path d="M295.602 152.556H270.738V151.419H295.602V152.556Z" fill="#CFDAFF"/>
<path d="M178.012 166.783H249.907V165.647H178.012V166.783Z" fill="#CFDAFF"/>
<path d="M178.012 173.604H295.61V172.467H178.012V173.604Z" fill="#CFDAFF"/>
<path d="M42.7301 272.751H345.672V77.9088C345.672 72.7123 341.446 68.4811 336.244 68.4811H52.1578C46.9587 68.4811 42.7301 72.7123 42.7301 77.9088V272.751ZM346.3 273.38H42.1016V77.9088C42.1016 72.3653 46.6118 67.8526 52.1578 67.8526H336.244C341.793 67.8526 346.3 72.3653 346.3 77.9088V273.38Z" fill="#5C7EF1"/>
<path d="M54.7287 81.473C52.5666 81.473 50.8043 83.2328 50.8043 85.3974V258.139C50.8043 260.303 52.5666 262.066 54.7287 262.066H333.681C335.846 262.066 337.608 260.303 337.608 258.139V85.3974C337.608 83.2328 335.846 81.473 333.681 81.473H54.7287ZM333.681 262.694H54.7287C52.2197 262.694 50.1758 260.65 50.1758 258.139V85.3974C50.1758 82.8859 52.2197 80.8445 54.7287 80.8445H333.681C336.193 80.8445 338.234 82.8859 338.234 85.3974V258.139C338.234 260.65 336.193 262.694 333.681 262.694Z" fill="#5C7EF1"/>
<path d="M9.30374 273.379C9.80152 278.095 21.3461 281.967 25.7608 281.967H363.897C368.312 281.967 379.856 278.095 380.354 273.379H9.30374ZM363.897 282.596H25.7608C20.8006 282.596 8.66016 278.47 8.66016 273.065V272.751H381V273.065C381 278.47 368.857 282.596 363.897 282.596Z" fill="#5C7EF1"/>
<rect x="201.738" y="129.196" width="14.3017" height="10.0112" fill="#CFDAFF"/>
<rect x="201.738" y="140.639" width="24.3129" height="5.72067" fill="#CFDAFF"/>
<rect x="201.738" y="147.789" width="24.3129" height="5.72067" fill="#CFDAFF"/>
<rect x="201.738" y="154.94" width="24.3129" height="5.72067" fill="#CFDAFF"/>
<rect x="201.738" y="163.521" width="24.3129" height="5.72067" fill="#CFDAFF"/>
<rect x="201.738" y="170.671" width="24.3129" height="5.72067" fill="#CFDAFF"/>
<rect x="218.895" y="129.196" width="7.15084" height="10.0112" fill="#CFDAFF"/>
<path d="M109.947 194.21C109.947 195.174 109.166 195.955 108.202 195.955C107.239 195.955 106.457 195.174 106.457 194.21C106.457 193.246 107.239 192.465 108.202 192.465C109.166 192.465 109.947 193.246 109.947 194.21Z" fill="white"/>
<path d="M251.944 202.937H230.607C229.029 202.937 227.75 201.658 227.75 200.079V178.744C227.75 177.165 229.029 175.886 230.607 175.886H251.944C253.522 175.886 254.801 177.165 254.801 178.744V200.079C254.801 201.658 253.522 202.937 251.944 202.937Z" fill="white"/>
<circle cx="193.911" cy="70.8191" r="37.9929" fill="url(#paint0_radial_5753_54966)" fill-opacity="0.5"/>
<path d="M194 80.9284C188.137 80.9284 183.385 76.183 183.385 70.3263C183.385 64.4697 188.137 59.7197 194 59.7197C199.859 59.7197 204.611 64.4697 204.611 70.3263C204.611 76.183 199.859 80.9284 194 80.9284ZM194 51.6348C183.693 51.6348 175.309 60.0193 175.309 70.3263C175.309 80.6287 183.693 89.0186 194 89.0186C204.303 89.0186 212.692 80.6287 212.692 70.3263C212.692 60.0193 204.303 51.6348 194 51.6348Z" fill="#5C7EF1"/>
<path d="M193.998 89.017C183.69 89.017 175.306 80.6272 175.306 70.3247C175.306 60.0178 183.69 51.6333 193.998 51.6333C204.3 51.6333 212.689 60.0178 212.689 70.3247C212.689 80.6272 204.3 89.017 193.998 89.017ZM215.226 64.8636C214.284 62.5865 213.813 61.4386 212.871 59.1696L214.849 54.9894C212.092 52.234 212.083 52.226 209.318 49.46L205.139 51.4553C202.87 50.5135 201.731 50.0338 199.454 49.0919L197.904 44.7419H190.086L188.537 49.0919C186.267 50.0338 185.12 50.5135 182.851 51.4553L178.673 49.46L173.141 54.9894L175.128 59.1696C174.177 61.4386 173.715 62.5865 172.773 64.8636L168.406 66.4122V74.2307L172.773 75.7807C173.715 78.0584 174.177 79.2056 175.128 81.4733L173.141 85.6535C175.898 88.4102 175.907 88.419 178.673 91.185L182.851 89.1896C185.12 90.1314 186.267 90.6109 188.537 91.5528L190.086 95.9023H197.904L199.454 91.5528C201.731 90.6109 202.87 90.1314 205.139 89.1896L209.318 91.185C212.083 88.419 212.092 88.4102 214.849 85.6535L212.871 81.4733C213.813 79.2056 214.284 78.0584 215.226 75.7807L219.584 74.2307V66.4122L215.226 64.8636Z" fill="#5C7EF1"/>
<circle cx="228.515" cy="32.1463" r="27.8162" fill="url(#paint1_radial_5753_54966)" fill-opacity="0.5"/>
<path d="M228.576 39.5456C224.283 39.5456 220.803 36.0713 220.803 31.7833C220.803 27.4955 224.283 24.0178 228.576 24.0178C232.865 24.0178 236.344 27.4955 236.344 31.7833C236.344 36.0713 232.865 39.5456 228.576 39.5456ZM228.576 18.0985C221.029 18.0985 214.891 24.2372 214.891 31.7833C214.891 39.3262 221.029 45.4688 228.576 45.4688C236.118 45.4688 242.261 39.3262 242.261 31.7833C242.261 24.2372 236.118 18.0985 228.576 18.0985Z" fill="#5C7EF1"/>
<path d="M228.584 45.4706C221.038 45.4706 214.899 39.3281 214.899 31.7852C214.899 24.2391 221.038 18.1004 228.584 18.1004C236.127 18.1004 242.269 24.2391 242.269 31.7852C242.269 39.3281 236.127 45.4706 228.584 45.4706ZM244.126 27.7869C243.437 26.1198 243.092 25.2793 242.402 23.6181L243.85 20.5576C241.832 18.5403 241.825 18.5344 239.801 16.5093L236.741 17.9702C235.08 17.2806 234.246 16.9294 232.579 16.2398L231.444 13.055H225.721L224.586 16.2398C222.925 16.9294 222.085 17.2806 220.423 17.9702L217.364 16.5093L213.314 20.5576L214.769 23.6181C214.073 25.2793 213.734 26.1198 213.045 27.7869L209.848 28.9207V34.645L213.045 35.7798C213.734 37.4474 214.073 38.2873 214.769 39.9476L213.314 43.0081C215.333 45.0264 215.339 45.0328 217.364 47.0579L220.423 45.597C222.085 46.2866 222.925 46.6377 224.586 47.3272L225.721 50.5117H231.444L232.579 47.3272C234.246 46.6377 235.08 46.2866 236.741 45.597L239.801 47.0579C241.825 45.0328 241.832 45.0264 243.85 43.0081L242.402 39.9476C243.092 38.2873 243.437 37.4474 244.126 35.7798L247.317 34.645V28.9207L244.126 27.7869Z" fill="#5C7EF1"/>
<path d="M241.849 236.097H113.303C106.631 236.097 101.223 230.658 101.223 223.951V134.803C101.223 128.095 106.631 122.657 113.303 122.657H241.849C248.521 122.657 253.93 128.095 253.93 134.803V223.951C253.93 230.658 248.521 236.097 241.849 236.097Z" fill="#5C7EF1"/>
<path d="M242.188 235.63V235.163H112.959C109.733 235.162 106.816 233.857 104.702 231.743C102.588 229.63 101.282 226.715 101.282 223.491V134.391C101.282 131.166 102.588 128.251 104.702 126.137C106.816 124.024 109.733 122.718 112.959 122.718H242.188C245.414 122.718 248.331 124.024 250.445 126.137C252.559 128.251 253.865 131.166 253.866 134.391V223.491C253.865 226.715 252.559 229.63 250.445 231.743C248.331 233.857 245.414 235.162 242.188 235.163V235.63V236.097C249.154 236.096 254.799 230.453 254.8 223.491V134.391C254.799 127.428 249.154 121.785 242.188 121.785H112.959C105.994 121.785 100.348 127.428 100.348 134.391V223.491C100.348 230.453 105.994 236.096 112.959 236.097H242.188V235.63Z" fill="#5C7EF1"/>
<path d="M239.169 229.115H115.977C111.2 229.115 107.328 225.244 107.328 220.47V138.283C107.328 133.508 111.2 129.637 115.977 129.637H239.169C243.946 129.637 247.819 133.508 247.819 138.283V220.47C247.819 225.244 243.946 229.115 239.169 229.115Z" fill="white"/>
<path d="M238.708 228.649V228.183H115.568C113.309 228.183 111.267 227.269 109.786 225.788C108.306 224.308 107.391 222.268 107.39 220.009V137.872C107.391 135.613 108.306 133.572 109.786 132.092C111.267 130.612 113.309 129.698 115.568 129.698H238.708C240.968 129.698 243.01 130.612 244.492 132.092C245.973 133.572 246.886 135.613 246.887 137.872V220.009C246.886 222.268 245.973 224.308 244.492 225.788C243.01 227.269 240.968 228.183 238.708 228.183V228.649V229.115C243.741 229.115 247.819 225.038 247.82 220.009V137.872C247.819 132.842 243.74 128.765 238.708 128.765H115.568C110.537 128.765 106.458 132.842 106.457 137.872V220.009C106.458 225.038 110.537 229.115 115.568 229.115H238.708V228.649Z" fill="#5C7EF1"/>
<path d="M236.472 150.579H196.332V146.216H236.472V150.579Z" fill="#EFF2FF"/>
<path d="M236.472 160.18H196.332V155.817H236.472V160.18Z" fill="#EFF2FF"/>
<path d="M236.472 216.898H196.332V165.414H236.472V216.898Z" fill="#EFF2FF"/>
<path d="M191.1 216.898H151.832V184.612H191.1V216.898Z" fill="#EFF2FF"/>
<path d="M190.227 150.579H151.832V146.216H190.227V150.579Z" fill="#EFF2FF"/>
<path d="M190.227 160.18H151.832V155.817H190.227V160.18Z" fill="#EFF2FF"/>
<path d="M190.227 169.776H151.832V165.413H190.227V169.776Z" fill="#EFF2FF"/>
<path d="M190.227 179.375H151.832V175.012H190.227V179.375Z" fill="#EFF2FF"/>
<path d="M147.469 216.898H120.418V146.217H147.469V216.898Z" fill="#EFF2FF"/>
<path d="M189.351 140.979H164.918V136.616H189.351V140.979Z" fill="#5C7EF1"/>
<path d="M73.543 113.93V160.541H76.543V113.93H73.543ZM79.043 166.041H100.349V163.041H79.043V166.041ZM73.543 160.541C73.543 163.579 76.0054 166.041 79.043 166.041V163.041C77.6623 163.041 76.543 161.922 76.543 160.541H73.543Z" fill="#5C7EF1"/>
<path d="M65.4453 211.417L72.2744 211.417L72.2744 208.417L65.4453 208.417L65.4453 211.417ZM72.2744 211.417L100.35 211.417L100.35 208.417L72.2744 208.417L72.2744 211.417Z" fill="#5C7EF1"/>
<rect x="5.10938" y="158.315" width="58.7007" height="87.4969" rx="5.5" fill="white" stroke="#5C7EF1" stroke-width="5"/>
<path d="M54.0957 187.229H14.8281V175.013H54.0957V187.229Z" fill="#EFF2FF"/>
<path d="M32.2804 196.828H14.8281V191.592H32.2804V196.828Z" fill="#EFF2FF"/>
<path d="M32.2804 206.426H14.8281V201.19H32.2804V206.426Z" fill="#EFF2FF"/>
<path d="M32.2804 216.025H14.8281V209.917H32.2804V216.025Z" fill="#EFF2FF"/>
<path d="M32.2804 234.351H14.8281V219.516H32.2804V234.351Z" fill="#EFF2FF"/>
<path d="M54.0929 234.351H36.6406V191.593H54.0929V234.351Z" fill="#EFF2FF"/>
<path d="M47.1167 168.031H22.6836V165.413H47.1167V168.031Z" fill="#5C7EF1"/>
<path d="M141.521 113.634H12.5892C5.89713 113.634 0.472656 108.208 0.472656 101.517V12.5838C0.472656 5.89179 5.89713 0.467316 12.5892 0.467316H141.521C148.212 0.467316 153.638 5.89179 153.638 12.5838V101.517C153.638 108.208 148.212 113.634 141.521 113.634Z" fill="#5C7EF1"/>
<path d="M138.554 106.727H15.5602C10.7919 106.727 6.92578 102.86 6.92578 98.0921V16.0111C6.92578 11.2418 10.7919 7.37664 15.5602 7.37664H138.554C143.323 7.37664 147.189 11.2418 147.189 16.0111V98.0921C147.189 102.86 143.323 106.727 138.554 106.727Z" fill="white"/>
<path d="M138.551 106.726V106.26H15.5575C13.301 106.26 11.2617 105.347 9.78161 103.868C8.3034 102.389 7.39 100.349 7.38907 98.0919V16.0109C7.39 13.7535 8.3034 11.7142 9.78161 10.235C11.2617 8.75588 13.301 7.84247 15.5575 7.84247H138.551C140.809 7.84247 142.848 8.75588 144.328 10.235C145.807 11.7142 146.72 13.7535 146.721 16.0109V98.0919C146.72 100.349 145.807 102.389 144.328 103.868C142.848 105.347 140.809 106.26 138.551 106.26V106.726V107.192C143.579 107.192 147.652 103.118 147.653 98.0919V16.0109C147.652 10.9844 143.578 6.91043 138.551 6.91043H15.5575C10.5319 6.91043 6.45796 10.9844 6.45703 16.0109V98.0919C6.45796 103.118 10.5319 107.192 15.5575 107.192H138.551V106.726Z" fill="#5C7EF1"/>
<path d="M135.689 37.9951H18.9961V24.4262H135.689V37.9951Z" fill="#EFF2FF"/>
<path d="M135.685 94.9824H100.406V43.4206H135.685V94.9824Z" fill="#EFF2FF"/>
<path d="M43.4201 94.9824H18.9961V43.4206H43.4201V94.9824Z" fill="#EFF2FF"/>
<path d="M94.9819 47.4932H48.8477V43.4225H94.9819V47.4932Z" fill="#EFF2FF"/>
<path d="M94.9819 56.9902H48.8477V52.9196H94.9819V56.9902Z" fill="#EFF2FF"/>
<path d="M94.9819 65.1328H48.8477V61.0621H94.9819V65.1328Z" fill="#EFF2FF"/>
<path d="M94.9819 94.9824H48.8477V70.5584H94.9819V94.9824Z" fill="#EFF2FF"/>
<path d="M88.9736 18.8096H64.1953V14.7412H88.9736V18.8096Z" fill="#5C7EF1"/>
<path d="M141.514 113.633V113.167H12.5825C9.36328 113.166 6.45343 111.863 4.34423 109.753C2.23502 107.644 0.93204 104.734 0.93204 101.516V12.5827C0.93204 9.36436 2.23502 6.45451 4.34423 4.34438C6.45343 2.23517 9.36328 0.93219 12.5825 0.93219H141.514C144.733 0.93219 147.643 2.23517 149.752 4.34438C151.861 6.45451 153.164 9.36436 153.165 12.5827V101.516C153.164 104.734 151.861 107.644 149.752 109.753C147.643 111.863 144.733 113.166 141.514 113.167V113.633V114.099C148.464 114.098 154.096 108.465 154.097 101.516V12.5827C154.096 5.6334 148.464 0.00108337 141.514 0.000152588H12.5825C5.63325 0.00108337 0 5.6334 0 12.5827V101.516C0 108.465 5.63325 114.098 12.5825 114.099H141.514V113.633Z" fill="#5C7EF1"/>
<path d="M323.742 108.741V113.224H163.137V108.741C163.137 105.292 165.927 102.501 169.379 102.501H317.503C320.954 102.501 323.742 105.292 323.742 108.741Z" fill="#8C9DFF"/>
<path d="M301.719 107.859C301.719 109.131 300.686 110.162 299.416 110.162C298.147 110.162 297.113 109.131 297.113 107.859C297.113 106.59 298.147 105.559 299.416 105.559C300.686 105.559 301.719 106.59 301.719 107.859Z" fill="white"/>
<path d="M308.775 107.859C308.775 109.131 307.744 110.162 306.475 110.162C305.203 110.162 304.172 109.131 304.172 107.859C304.172 106.59 305.203 105.559 306.475 105.559C307.744 105.559 308.775 106.59 308.775 107.859Z" fill="white"/>
<path d="M315.834 107.859C315.834 109.131 314.803 110.162 313.531 110.162C312.261 110.162 311.23 109.131 311.23 107.859C311.23 106.59 312.261 105.559 313.531 105.559C314.803 105.559 315.834 106.59 315.834 107.859Z" fill="white"/>
<defs>
<radialGradient id="paint0_radial_5753_54966" cx="0" cy="0" r="1" gradientUnits="userSpaceOnUse" gradientTransform="translate(193.911 70.8191) rotate(90) scale(34.0962)">
<stop stop-color="white"/>
<stop offset="0.326354" stop-color="white" stop-opacity="0.505422"/>
<stop offset="0.678841" stop-color="#738FEC" stop-opacity="0.367269"/>
<stop offset="1" stop-color="#4368E7" stop-opacity="0"/>
</radialGradient>
<radialGradient id="paint1_radial_5753_54966" cx="0" cy="0" r="1" gradientUnits="userSpaceOnUse" gradientTransform="translate(228.515 32.1463) rotate(90) scale(24.9633)">
<stop stop-color="white"/>
<stop offset="0.326354" stop-color="white" stop-opacity="0.505422"/>
<stop offset="0.678841" stop-color="#738FEC" stop-opacity="0.367269"/>
<stop offset="1" stop-color="#4368E7" stop-opacity="0"/>
</radialGradient>
</defs>
</svg>
